# xmcd CD database file
#
# Track frame offsets:
#	150
#	25742
#	45745
#	71367
#
# Disc length: 1216 seconds
#
# Revision: 6
# Processed by: cddbd v1.5.1PL0 Copyright (c) Steve Scherf et al.
# Submitted via: CDex 1.51
#
DISCID=2a04be04
DTITLE=???? - ????
DYEAR=2003
DGENRE=Anime
TTITLE0=????
TTITLE1=??????????
TTITLE2=????(inst)
TTITLE3=??????????(inst)
EXTD=YEAR: 2003
EXTT0=
EXTT1=
EXTT2=
EXTT3=
PLAYORDER=
